<?xml version="1.0" standalone="no"?>
<!DOCTYPE svg PUBLIC "-//W3C//DTD SVG 20010904//EN"
 "http://www.w3.org/TR/2001/REC-SVG-20010904/DTD/svg10.dtd">
<svg version="1.0" xmlns="http://www.w3.org/2000/svg"
 width="172.000000pt" height="172.000000pt" viewBox="0 0 172.000000 172.000000"
 preserveAspectRatio="xMidYMid meet">
<metadata>
Created by potrace 1.14, written by Peter Selinger 2001-2017
</metadata>
<g transform="translate(0.000000,172.000000) scale(0.100000,-0.100000)"
fill="#000000" stroke="none">
<path d="M517 1515 c-26 -6 -49 -14 -50 -16 -47 -59 -55 -77 -53 -114 1 -22
10 -54 19 -71 l16 -31 -97 -54 c-53 -29 -99 -56 -102 -59 -3 -3 -26 -17 -53
-30 -26 -14 -48 -27 -48 -30 -3 -10 -5 -470 -2 -470 5 0 78 42 90 52 10 8 13
57 13 182 l0 171 44 28 c24 15 48 27 55 27 6 0 11 4 11 8 0 4 12 13 28 19 15
7 34 17 42 22 47 30 96 56 103 53 4 -1 7 3 7 8 0 6 4 10 9 10 10 0 253 -140
261 -151 3 -3 15 -9 27 -13 22 -7 22 -10 22 -183 0 -195 -5 -180 76 -224 l30
-16 0 232 c-1 239 -5 265 -41 265 -8 0 -14 5 -14 10 0 6 -6 10 -13 10 -7 0
-28 11 -47 24 -19 13 -66 40 -105 61 -83 45 -99 56 -88 64 19 13 32 62 28 102
-5 48 -31 82 -85 109 -31 15 -41 16 -83 5z"/>
<path d="M1046 1522 c-25 -5 -98 -53 -91 -60 3 -3 0 -11 -6 -18 -19 -23 -18
-87 1 -120 10 -17 15 -35 11 -40 -8 -11 -80 -53 -103 -61 -10 -3 -18 -9 -18
-13 0 -10 84 -60 100 -60 7 0 39 16 72 36 32 20 64 33 71 30 7 -3 37 -20 68
-38 31 -18 95 -55 142 -83 l85 -49 -1 -173 c0 -96 3 -177 9 -182 21 -20 88
-50 94 -42 4 7 5 422 1 453 -1 3 -38 28 -83 54 -46 26 -86 53 -90 59 -4 5 -8
6 -8 2 0 -5 -13 1 -29 12 -16 12 -34 21 -40 21 -6 0 -11 4 -11 9 0 5 -11 12
-25 15 -25 6 -25 7 -10 36 25 47 25 100 1 142 -12 21 -27 38 -33 38 -7 0 -13
4 -13 9 0 11 -69 28 -94 23z"/>
<path d="M669 1113 c-4 -21 -6 -459 -2 -465 2 -4 26 4 53 19 l49 26 3 186 c3
203 4 201 -56 226 -40 17 -45 18 -47 8z"/>
<path d="M408 947 c-2 -6 -4 -96 -3 -199 0 -104 -3 -188 -8 -188 -4 0 -5 -6 0
-12 4 -7 8 -24 9 -38 2 -39 3 -42 14 -35 6 3 10 2 10 -2 0 -5 27 -22 60 -38
33 -17 60 -33 60 -37 0 -5 5 -8 10 -8 6 0 27 -11 48 -24 176 -111 212 -125
251 -94 9 7 25 18 36 24 11 6 43 23 70 39 28 15 68 37 90 49 22 12 42 23 45
26 3 3 23 14 45 25 22 11 50 30 63 43 24 25 29 38 10 26 -7 -5 -8 -3 -3 7 9
13 15 403 7 426 -4 14 -72 -18 -94 -44 -9 -11 -13 -60 -13 -177 0 -88 -4 -166
-8 -173 -7 -11 -148 -93 -159 -93 -2 0 -5 22 -5 49 0 83 -49 133 -131 136 -85
2 -142 -57 -138 -142 1 -18 -4 -35 -11 -38 -7 -2 -13 -1 -13 3 0 6 -57 44 -70
47 -3 0 -20 9 -37 20 -31 18 -37 31 -35 80 4 149 2 291 -5 294 -4 2 -27 16
-50 32 -28 19 -42 25 -45 16z"/>
</g>
</svg>
